<svg width="485" height="200" viewBox="0 0 485 200" fill="none" xmlns="http://www.w3.org/2000/svg">
<g clip-path="url(#clip0_134_279)">
<path d="M2.51562 50.3145C16.4096 50.3145 27.6729 61.5777 27.6729 75.4717V150.943C13.7789 150.943 2.51562 139.68 2.51562 125.786V50.3145Z" fill="white"/>
<path d="M30.1887 15.0943C30.1887 6.75797 23.4307 0 15.0943 0C6.75797 0 0 6.75797 0 15.0943C0 23.4307 6.75797 30.1887 15.0943 30.1887C23.4307 30.1887 30.1887 23.4307 30.1887 15.0943Z" fill="#DC0028"/>
<path fill-rule="evenodd" clip-rule="evenodd" d="M123.271 142.954V149.686C123.271 163.579 112.007 174.843 98.1133 174.843C92.2573 174.843 82.4001 174.843 72.9542 174.843C59.0604 174.843 47.7988 186.106 47.7988 200C47.7988 200 70.3252 200 98.1133 200C125.901 200 148.428 177.474 148.428 149.686V99.3711C148.428 71.5831 125.901 49.0566 98.1133 49.0566C70.3252 49.0566 47.7988 71.5831 47.7988 99.3711C47.7988 127.159 70.3252 149.686 98.1133 149.686C107.277 149.686 115.87 147.235 123.271 142.954ZM98.1133 124.528C84.2196 124.528 72.9561 113.265 72.9561 99.3711C72.9561 85.4774 84.2196 74.2139 98.1133 74.2139C112.007 74.2139 123.271 85.4774 123.271 99.3711C123.271 113.265 112.007 124.528 98.1133 124.528Z" fill="white"/>
<path d="M168.553 0C182.447 0 193.711 11.2633 193.711 25.1572V150.943C179.817 150.943 168.553 139.68 168.553 125.786V0Z" fill="white"/>
<path d="M267.925 71.6981C274.872 71.6981 280.503 66.0667 280.503 59.1195C280.503 52.1725 274.872 46.5409 267.925 46.5409C260.977 46.5409 255.346 52.1725 255.346 59.1195C255.346 66.0667 260.977 71.6981 267.925 71.6981Z" fill="#DC0028"/>
<path d="M267.925 154.717C274.872 154.717 280.503 149.086 280.503 142.138C280.503 135.191 274.872 129.56 267.925 129.56C260.977 129.56 255.346 135.191 255.346 142.138C255.346 149.086 260.977 154.717 267.925 154.717Z" fill="#DC0028"/>
<path d="M310.063 130.189C310.063 137.136 304.432 142.767 297.484 142.767C290.537 142.767 284.906 137.136 284.906 130.189C284.906 123.242 290.537 117.61 297.484 117.61C304.432 117.61 310.063 123.242 310.063 130.189Z" fill="#DC0028"/>
<path d="M238.365 142.767C245.312 142.767 250.943 137.136 250.943 130.189C250.943 123.242 245.312 117.61 238.365 117.61C231.418 117.61 225.786 123.242 225.786 130.189C225.786 137.136 231.418 142.767 238.365 142.767Z" fill="#DC0028"/>
<path d="M250.943 71.0692C250.943 78.0164 245.312 83.6478 238.365 83.6478C231.418 83.6478 225.786 78.0164 225.786 71.0692C225.786 64.122 231.418 58.4906 238.365 58.4906C245.312 58.4906 250.943 64.122 250.943 71.0692Z" fill="#DC0028"/>
<path d="M297.484 83.6478C304.432 83.6478 310.063 78.0164 310.063 71.0692C310.063 64.122 304.432 58.4906 297.484 58.4906C290.537 58.4906 284.906 64.122 284.906 71.0692C284.906 78.0164 290.537 83.6478 297.484 83.6478Z" fill="#DC0028"/>
<path d="M238.994 100.629C238.994 107.576 233.362 113.208 226.415 113.208C219.468 113.208 213.836 107.576 213.836 100.629C213.836 93.6817 219.468 88.0503 226.415 88.0503C233.362 88.0503 238.994 93.6817 238.994 100.629Z" fill="#DC0028"/>
<path d="M309.434 113.208C316.381 113.208 322.013 107.576 322.013 100.629C322.013 93.6817 316.381 88.0503 309.434 88.0503C302.487 88.0503 296.855 93.6817 296.855 100.629C296.855 107.576 302.487 113.208 309.434 113.208Z" fill="#DC0028"/>
<path d="M475.357 50.3145C464.842 50.3145 455.435 56.8548 451.774 66.7126L437.681 104.657L417.416 57.8917C415.423 53.2916 410.887 50.3145 405.874 50.3145C400.861 50.3145 396.326 53.2916 394.333 57.8917L374.068 104.657L359.974 66.7126C356.313 56.8548 346.907 50.3145 336.391 50.3145H327.044L361.378 142.745C363.166 147.558 367.701 150.802 372.835 150.939C377.969 151.075 382.67 148.078 384.711 143.366L405.874 94.5289L427.037 143.366C429.079 148.078 433.78 151.075 438.914 150.939C444.047 150.802 448.582 147.558 450.37 142.745L484.704 50.3145H475.357Z" fill="white"/>
<path fill-rule="evenodd" clip-rule="evenodd" d="M474.642 149.686C479.505 149.686 483.447 145.743 483.447 140.881C483.447 136.018 479.505 132.075 474.642 132.075C469.779 132.075 465.837 136.018 465.837 140.881C465.837 145.743 469.779 149.686 474.642 149.686ZM474.642 150.943C480.199 150.943 484.705 146.438 484.705 140.881C484.705 135.323 480.199 130.818 474.642 130.818C469.084 130.818 464.579 135.323 464.579 140.881C464.579 146.438 469.084 150.943 474.642 150.943Z" fill="white"/>
<path fill-rule="evenodd" clip-rule="evenodd" d="M470.869 145.912H472.276L472.288 142.247H473.726C474.168 142.247 474.525 142.332 474.797 142.503C475.079 142.663 475.313 142.893 475.501 143.194C475.698 143.484 475.891 143.825 476.078 144.215L476.867 145.912H478.416L477.557 144.065C477.303 143.494 477.054 143.013 476.81 142.623C476.566 142.222 476.276 141.922 475.937 141.721C475.905 141.701 475.872 141.682 475.838 141.664C476.103 141.604 476.347 141.513 476.571 141.391C477.012 141.151 477.355 140.816 477.599 140.385C477.852 139.954 477.979 139.459 477.979 138.898C477.979 138.207 477.82 137.637 477.5 137.186C477.191 136.735 476.764 136.4 476.219 136.179C475.684 135.959 475.083 135.849 474.416 135.849H470.869V145.912ZM472.293 140.881H474.403C474.806 140.881 475.167 140.811 475.487 140.671C475.806 140.53 476.055 140.325 476.233 140.055C476.411 139.774 476.501 139.434 476.501 139.033C476.501 138.613 476.407 138.277 476.219 138.027C476.041 137.767 475.792 137.576 475.473 137.456C475.163 137.326 474.816 137.261 474.431 137.261H472.304L472.293 140.881Z" fill="white"/>
</g>
<defs>
<clipPath id="clip0_134_279">
<rect width="484.906" height="200" fill="white"/>
</clipPath>
</defs>
</svg>
