<svg width="140" height="20" viewBox="0 0 140 20" fill="none" xmlns="http://www.w3.org/2000/svg">
<path d="M0 0.257311H5.32V19.7661H0V0.257311ZM18.9467 9.26316H19.0167V0.233918H24.1033V19.7427H19.2033L13.09 9.61404H13.02V19.7427H7.95666V0.233918H13.5567L18.9467 9.26316ZM37.3567 10.0117C37.3567 5.12281 35.98 4.98246 33.7167 4.98246H32.0833V15.2515H33.95C35.9333 15.2515 37.3567 14.924 37.3567 10.0117ZM26.7633 0.257311H33.3667C39.7133 0.257311 42.7467 1.94152 42.7467 9.98831C42.7467 18.1988 39.76 19.7427 33.4367 19.7427H26.74C26.7633 19.7427 26.7633 0.257311 26.7633 0.257311ZM44.66 0.257311H49.98V19.7661H44.66V0.257311ZM93.9633 15.3684C96.8567 15.3684 97.2767 13.4035 97.2767 10.1754C97.2767 6.99415 96.88 5.00585 93.9633 5.00585C91.0233 5.00585 90.6267 6.97076 90.6267 10.152C90.6267 13.4035 91.0467 15.3684 93.9633 15.3684ZM93.9633 0C101.383 0 102.667 4.77193 102.667 10.0117C102.667 15.2281 101.36 19.9766 93.9633 19.9766C86.5433 19.9766 85.2367 15.2047 85.2367 10.0117C85.2367 4.77193 86.5433 0 93.9633 0ZM131.297 15.3684C134.19 15.3684 134.61 13.4035 134.61 10.1754C134.61 6.99415 134.213 5.00585 131.297 5.00585C128.357 5.00585 127.96 6.97076 127.96 10.152C127.96 13.4035 128.357 15.3684 131.297 15.3684ZM131.297 0C138.717 0 140 4.77193 140 10.0117C140 15.2281 138.693 19.9766 131.297 19.9766C123.877 19.9766 122.547 15.2047 122.547 10.0117C122.547 4.77193 123.877 0 131.297 0ZM75.0167 12.2339L75.6 8H83.3233V19.7661H78.4233C77.56 19.9298 76.58 20 75.4133 20C68.88 20 67.27 15.9298 67.27 10.0351C67.27 3.27485 69.4867 0.0233932 76.3467 0.0233932C78.82 0.0233932 81.0367 0.654973 82.53 1.61404L79.6833 5.96491C78.7733 5.47368 77.6767 5.07603 76.1133 5.07603C74.0133 5.07603 72.6133 5.63743 72.6133 10.1988C72.6133 14.5965 73.4533 15.6959 75.9033 15.6959C78.5167 15.6959 78.4467 14.7368 78.4467 12.5848V12.2339C78.47 12.2339 75.0167 12.2339 75.0167 12.2339ZM112.35 12.2339L112.933 8H120.657V19.7661H115.757C114.893 19.9298 113.913 20 112.747 20C106.213 20 104.603 15.9298 104.603 10.0351C104.603 3.27485 106.82 0.0233932 113.68 0.0233932C116.153 0.0233932 118.347 0.654973 119.863 1.61404L117.017 5.96491C116.107 5.47368 115.01 5.07603 113.447 5.07603C111.347 5.07603 109.947 5.63743 109.947 10.1988C109.947 14.5965 110.787 15.6959 113.237 15.6959C115.85 15.6959 115.78 14.7368 115.78 12.5848V12.2339H112.35ZM65.87 5.00585H57.8667V7.55556H63.77L63.1167 12.1871H57.8433V15.1111H65.8467V19.7427H52.64V0.233918H65.87V5.00585Z" fill="#E51075"/>
</svg>
