<svg width="84" height="12" viewBox="0 0 84 12" fill="none" xmlns="http://www.w3.org/2000/svg">
<path d="M0 0.154387H3.192V11.8596H0V0.154387ZM11.368 5.5579H11.41V0.140351H14.462V11.8456H11.522L7.854 5.76842H7.812V11.8456H4.774V0.140351H8.134L11.368 5.5579ZM22.414 6.00702C22.414 3.07369 21.588 2.98947 20.23 2.98947H19.25V9.15088H20.37C21.56 9.15088 22.414 8.95439 22.414 6.00702ZM16.058 0.154387H20.02C23.828 0.154387 25.648 1.16491 25.648 5.99298C25.648 10.9193 23.856 11.8456 20.062 11.8456H16.044C16.058 11.8456 16.058 0.154387 16.058 0.154387ZM26.796 0.154387H29.988V11.8596H26.796V0.154387ZM56.378 9.22105C58.114 9.22105 58.366 8.04211 58.366 6.10526C58.366 4.19649 58.128 3.00351 56.378 3.00351C54.614 3.00351 54.376 4.18246 54.376 6.09123C54.376 8.0421 54.628 9.22105 56.378 9.22105ZM56.378 0C60.83 0 61.6 2.86316 61.6 6.00702C61.6 9.13684 60.816 11.986 56.378 11.986C51.926 11.986 51.142 9.12281 51.142 6.00702C51.142 2.86316 51.926 0 56.378 0ZM78.778 9.22105C80.514 9.22105 80.766 8.04211 80.766 6.10526C80.766 4.19649 80.528 3.00351 78.778 3.00351C77.014 3.00351 76.776 4.18246 76.776 6.09123C76.776 8.0421 77.014 9.22105 78.778 9.22105ZM78.778 0C83.23 0 84 2.86316 84 6.00702C84 9.13684 83.216 11.986 78.778 11.986C74.326 11.986 73.528 9.12281 73.528 6.00702C73.528 2.86316 74.326 0 78.778 0ZM45.01 7.34035L45.36 4.8H49.994V11.8596H47.054C46.536 11.9579 45.948 12 45.248 12C41.328 12 40.362 9.55789 40.362 6.02105C40.362 1.96491 41.692 0.0140359 45.808 0.0140359C47.292 0.0140359 48.622 0.392984 49.518 0.968422L47.81 3.57895C47.264 3.28421 46.606 3.04562 45.668 3.04562C44.408 3.04562 43.568 3.38246 43.568 6.1193C43.568 8.7579 44.072 9.41754 45.542 9.41754C47.11 9.41754 47.068 8.84211 47.068 7.55088V7.34035C47.082 7.34035 45.01 7.34035 45.01 7.34035ZM67.41 7.34035L67.76 4.8H72.394V11.8596H69.454C68.936 11.9579 68.348 12 67.648 12C63.728 12 62.762 9.55789 62.762 6.02105C62.762 1.96491 64.092 0.0140359 68.208 0.0140359C69.692 0.0140359 71.008 0.392984 71.918 0.968422L70.21 3.57895C69.664 3.28421 69.006 3.04562 68.068 3.04562C66.808 3.04562 65.968 3.38246 65.968 6.1193C65.968 8.7579 66.472 9.41754 67.942 9.41754C69.51 9.41754 69.468 8.84211 69.468 7.55088V7.34035H67.41ZM39.522 3.00351H34.72V4.53334H38.262L37.87 7.31228H34.706V9.06667H39.508V11.8456H31.584V0.140351H39.522V3.00351Z" fill="white"/>
</svg>
