<svg width="182" height="20" viewBox="0 0 182 20" fill="none" xmlns="http://www.w3.org/2000/svg">
<path d="M16.2652 12.6903C16.8062 13.4733 17.0609 14.3542 17.0609 15.2676C17.0609 17.6817 15.1192 19.7043 12.7001 19.6717C11.3633 19.6717 9.99461 19.0193 9.16697 17.7796L8.27576 16.4747C7.86204 18.3668 6.27055 19.6717 4.2334 19.6717C1.87795 19.6717 0 17.7143 0 15.3002V4.37148C0 1.95739 1.84611 0 4.2334 0C6.30229 0 7.92562 1.40279 8.3076 3.32755L9.32617 1.89214C10.1538 0.717707 11.4906 0.0326254 12.8275 0.0326254C15.1192 0.0326254 17.0609 1.89214 17.0609 4.30625C17.0609 5.21969 16.8062 6.13313 16.2652 6.88347L14.228 9.78688L16.2652 12.6903Z" fill="#05CE78"/>
<path d="M22.9216 0C20.3677 0 18.3246 2.15674 18.3246 4.70562V14.9665C18.3246 17.548 20.3677 19.6721 22.8896 19.6721C25.4754 19.6721 27.4866 17.5153 27.4866 14.9665V4.70562C27.5184 2.15674 25.4754 0 22.9216 0Z" fill="#05CE78"/>
<path d="M42.1644 9.83609C44.1746 10.7155 45.1796 12.181 45.1796 14.2656C45.1796 17.4248 42.6355 19.6721 38.5523 19.6721C33.0871 19.6721 29.0667 15.4706 29.0667 9.83609C29.0667 4.20149 33.0871 0 38.5523 0C42.6355 0 45.1796 2.24731 45.1796 5.40657C45.1796 7.52361 44.1746 8.95667 42.1644 9.83609Z" fill="#05CE78"/>
<path d="M63.8203 15.2676C63.8203 14.3542 63.5652 13.4733 63.0231 12.6903L60.9822 9.78688L63.0231 6.88347C63.5652 6.13313 63.8203 5.21969 63.8203 4.30625C63.8203 1.89214 61.875 0.0326254 59.5791 0.0326254C58.2395 0.0326254 56.9002 0.717707 56.0712 1.89214L55.0826 3.32755C54.6999 1.40279 53.0735 0 51.0007 0C48.609 0 46.7594 1.95739 46.7594 4.37148V15.3002C46.7594 17.7143 48.6409 19.6717 51.0007 19.6717C53.0417 19.6717 54.6361 18.3668 55.0507 16.4747L55.9436 17.7796C56.7728 19.0193 58.1439 19.6717 59.4832 19.6717C61.875 19.7043 63.8203 17.6817 63.8203 15.2676Z" fill="#05CE78"/>
<path d="M77.5589 8.94736C78.9835 10.2631 79.9334 11.6447 79.9334 13.6184C79.9334 17.5329 77.0206 20 72.1133 20C67.1109 20 64.7681 18.2236 64.7681 15.3289C64.7681 13.3224 66.2561 12.0395 68.3774 12.0395H68.409L67.2693 10.9539C65.8445 9.60524 64.8631 8.25657 64.8631 6.28288C64.8631 2.4342 67.5859 0 72.2399 0C76.9889 0 79.2369 1.74342 79.2369 4.67104C79.2369 6.41447 78.097 7.59867 76.3873 7.86182L77.5589 8.94736Z" fill="#05CE78"/>
<path d="M108.39 19.6721C106.519 19.6721 104.998 18.5648 103.92 16.2523C102.841 18.5648 101.32 19.6721 99.4816 19.6721C96.1526 19.6721 93.7428 16.5129 95.2334 12.9628L99.1328 3.58267C100.116 1.27022 101.542 0 103.952 0C106.392 0 107.819 1.27022 108.77 3.58267L112.67 12.9628C114.128 16.5129 111.75 19.6721 108.39 19.6721Z" fill="#05CE78"/>
<path d="M114.371 5.2131V15.5081C114.371 17.9671 116.281 20 118.606 20C120.516 20 122.013 18.7868 122.553 17.0491L122.999 17.8688C123.796 19.2459 125.196 20 126.629 20C128.953 20 130.8 18.0984 130.8 15.6721C130.8 14.8524 130.609 14.0655 130.163 13.3442L128.507 10.6229C129.717 9.67207 130.449 8.16392 130.449 6.32785C130.449 2.9508 127.839 0.327863 124.496 0.327863H118.988C116.027 0.327863 114.371 1.99999 114.371 5.2131Z" fill="#05CE78"/>
<path d="M144.006 8.78687V15.5737C144.006 17.9999 142.048 20 139.426 20C136.961 20 134.97 17.9999 134.97 15.5737V8.78687C132.854 8.65572 131.116 6.85244 131.116 4.55736C131.116 2.16392 132.948 0.327863 135.192 0.327863H143.786C146.028 0.327863 147.861 2.19671 147.861 4.55736C147.861 6.85244 146.124 8.6885 144.006 8.78687Z" fill="#05CE78"/>
<path d="M163.974 16.2305C163.974 14.346 162.812 12.9243 161.211 12.5937C161.933 12.0978 162.373 11.2712 162.373 10.1802C162.373 9.08916 161.965 8.26264 161.211 7.7667C162.844 7.43609 163.974 6.0475 163.974 4.12994C163.974 2.014 162.342 0.327863 160.364 0.327863H153.771C150.757 0.327863 149.125 2.014 149.125 5.22097V15.1064C149.125 18.3465 150.757 19.9995 153.771 19.9995H160.364C162.342 20.0325 163.974 18.3464 163.974 16.2305Z" fill="#05CE78"/>
<path d="M165.238 5.2131V15.5081C165.238 17.9671 167.148 20 169.472 20C171.383 20 172.879 18.7868 173.42 17.0491L173.866 17.8688C174.662 19.2459 176.063 20 177.496 20C179.82 20 181.667 18.0984 181.667 15.6721C181.667 14.8524 181.476 14.0655 181.03 13.3442L179.374 10.6229C180.584 9.67207 181.316 8.16392 181.316 6.32785C181.316 2.9508 178.705 0.327863 175.363 0.327863H169.855C166.862 0.327863 165.238 1.99999 165.238 5.2131Z" fill="#05CE78"/>
<path d="M92.8163 15.5737V8.78687C94.9372 8.6885 96.6785 6.85244 96.6785 4.55736C96.6785 2.19671 94.8427 0.327863 92.5946 0.327863H84.0167C81.7693 0.327863 79.9334 2.16392 79.9334 4.55736C79.9334 6.85244 81.6744 8.65572 83.7952 8.78687V15.5737C83.7952 17.9999 85.7893 20 88.2584 20C90.8222 20 92.8163 17.9999 92.8163 15.5737Z" fill="#05CE78"/>
</svg>
