<svg width="109" height="12" viewBox="0 0 109 12" fill="none" xmlns="http://www.w3.org/2000/svg">
<path d="M9.75909 7.61421C10.0837 8.08397 10.2365 8.6125 10.2365 9.16054C10.2365 10.609 9.07153 11.8226 7.62006 11.803C6.81799 11.803 5.99677 11.4116 5.50018 10.6677L4.96545 9.88481C4.71722 11.0201 3.76233 11.803 2.54004 11.803C1.12677 11.803 0 10.6286 0 9.18011V2.62289C0 1.17443 1.10767 0 2.54004 0C3.78137 0 4.75537 0.841677 4.98456 1.99653L5.5957 1.13528C6.09229 0.430624 6.89435 0.0195753 7.69647 0.0195753C9.07153 0.0195753 10.2365 1.13528 10.2365 2.58375C10.2365 3.13182 10.0837 3.67988 9.75909 4.13008L8.5368 5.87213L9.75909 7.61421Z" fill="white"/>
<path d="M13.7529 0C12.2206 0 10.9948 1.29404 10.9948 2.82337V8.9799C10.9948 10.5288 12.2206 11.8032 13.7338 11.8032C15.2852 11.8032 16.4919 10.5092 16.4919 8.9799V2.82337C16.511 1.29404 15.2852 0 13.7529 0Z" fill="white"/>
<path d="M25.2986 5.90165C26.5048 6.42928 27.1078 7.30863 27.1078 8.55933C27.1078 10.4549 25.5813 11.8032 23.1314 11.8032C19.8522 11.8032 17.44 9.28237 17.44 5.90165C17.44 2.5209 19.8522 0 23.1314 0C25.5813 0 27.1078 1.34839 27.1078 3.24394C27.1078 4.51416 26.5048 5.374 25.2986 5.90165Z" fill="white"/>
<path d="M38.2922 9.16054C38.2922 8.6125 38.1391 8.08397 37.8138 7.61421L36.5893 5.87213L37.8138 4.13008C38.1391 3.67988 38.2922 3.13182 38.2922 2.58375C38.2922 1.13528 37.125 0.0195753 35.7474 0.0195753C34.9437 0.0195753 34.1401 0.430624 33.6427 1.13528L33.0496 1.99653C32.8199 0.841677 31.8441 0 30.6004 0C29.1654 0 28.0557 1.17443 28.0557 2.62289V9.18011C28.0557 10.6286 29.1845 11.803 30.6004 11.803C31.825 11.803 32.7817 11.0201 33.0304 9.88481L33.5662 10.6677C34.0637 11.4116 34.8864 11.803 35.6899 11.803C37.125 11.8226 38.2922 10.609 38.2922 9.16054Z" fill="white"/>
<path d="M46.5353 5.36841C47.3901 6.15786 47.96 6.98682 47.96 8.17101C47.96 10.5197 46.2123 12 43.268 12C40.2665 12 38.8608 10.9342 38.8608 9.19736C38.8608 7.99342 39.7537 7.22368 41.0264 7.22368H41.0454L40.3616 6.57237C39.5067 5.76314 38.9178 4.95394 38.9178 3.76973C38.9178 1.46052 40.5515 0 43.3439 0C46.1934 0 47.5421 1.04605 47.5421 2.80262C47.5421 3.84868 46.8582 4.5592 45.8324 4.71709L46.5353 5.36841Z" fill="white"/>
<path d="M65.0338 11.8032C63.9116 11.8032 62.9987 11.1389 62.3518 9.75139C61.7049 11.1389 60.7921 11.8032 59.689 11.8032C57.6915 11.8032 56.2457 9.90772 57.14 7.77766L59.4797 2.1496C60.0694 0.76213 60.925 0 62.3709 0C63.8353 0 64.6915 0.76213 65.2621 2.1496L67.6018 7.77766C68.4766 9.90772 67.0503 11.8032 65.0338 11.8032Z" fill="white"/>
<path d="M68.6226 3.12786V9.30488C68.6226 10.7803 69.7687 12 71.1633 12C72.3095 12 73.2076 11.2721 73.5319 10.2295L73.7995 10.7213C74.2775 11.5475 75.1179 12 75.9774 12C77.372 12 78.48 10.859 78.48 9.40329C78.48 8.91146 78.3655 8.43932 78.0979 8.00654L77.1044 6.37374C77.8303 5.80324 78.2696 4.89835 78.2696 3.79671C78.2696 1.77048 76.7032 0.196718 74.6977 0.196718H71.3928C69.6161 0.196718 68.6226 1.2 68.6226 3.12786Z" fill="white"/>
<path d="M86.4037 5.27212V9.34424C86.4037 10.8 85.2288 12 83.6553 12C82.1768 12 80.9821 10.8 80.9821 9.34424V5.27212C79.7123 5.19343 78.6697 4.11146 78.6697 2.73442C78.6697 1.29835 79.7689 0.196718 81.1151 0.196718H86.2714C87.6169 0.196718 88.7167 1.31802 88.7167 2.73442C88.7167 4.11146 87.6742 5.2131 86.4037 5.27212Z" fill="white"/>
<path d="M98.3845 9.73827C98.3845 8.60758 97.6874 7.75458 96.7266 7.55623C97.1599 7.25869 97.4237 6.76274 97.4237 6.10814C97.4237 5.45349 97.179 4.95758 96.7266 4.66002C97.7065 4.46166 98.3845 3.6285 98.3845 2.47796C98.3845 1.2084 97.4052 0.196718 96.2181 0.196718H92.2625C90.4542 0.196718 89.4749 1.2084 89.4749 3.13258V9.06383C89.4749 11.0079 90.4542 11.9997 92.2625 11.9997H96.2181C97.4052 12.0195 98.3845 11.0078 98.3845 9.73827Z" fill="white"/>
<path d="M99.1426 3.12786V9.30488C99.1426 10.7803 100.289 12 101.683 12C102.83 12 103.728 11.2721 104.052 10.2295L104.32 10.7213C104.797 11.5475 105.638 12 106.497 12C107.892 12 109 10.859 109 9.40329C109 8.91146 108.886 8.43932 108.618 8.00654L107.624 6.37374C108.35 5.80324 108.79 4.89835 108.79 3.79671C108.79 1.77048 107.223 0.196718 105.218 0.196718H101.913C100.117 0.196718 99.1426 1.2 99.1426 3.12786Z" fill="white"/>
<path d="M55.6898 9.34424V5.27212C56.9623 5.2131 58.0071 4.11146 58.0071 2.73442C58.0071 1.31802 56.9056 0.196718 55.5568 0.196718H50.41C49.0616 0.196718 47.96 1.29835 47.96 2.73442C47.96 4.11146 49.0046 5.19343 50.2771 5.27212V9.34424C50.2771 10.8 51.4736 12 52.955 12C54.4933 12 55.6898 10.8 55.6898 9.34424Z" fill="white"/>
</svg>
