<svg width="64" height="24" viewBox="0 0 64 24" fill="none" xmlns="http://www.w3.org/2000/svg">
<path d="M32.0561 10.8571C31.3423 10.8571 30.7177 10.7309 30.1823 10.4783C29.6543 10.2258 29.2603 9.85674 29 9.3711L30.7177 8.62323C30.8218 8.82396 30.9816 8.97289 31.1973 9.07001C31.4203 9.16066 31.7066 9.20599 32.0561 9.20599C32.242 9.20599 32.4056 9.1898 32.5468 9.15743C32.6881 9.12505 32.7997 9.07649 32.8814 9.01174C32.9707 8.94051 33.0153 8.8531 33.0153 8.74949C33.0153 8.61999 32.967 8.52287 32.8703 8.45811C32.7811 8.39336 32.6509 8.3448 32.4799 8.31242C32.3163 8.27357 32.1193 8.2412 31.8888 8.2153C31.6062 8.17645 31.3051 8.12141 30.9853 8.05018C30.6656 7.97248 30.3607 7.85917 30.0707 7.71024C29.7882 7.55484 29.5577 7.35087 29.3792 7.09834C29.2008 6.83934 29.1115 6.51558 29.1115 6.12707C29.1115 5.72562 29.2379 5.36625 29.4908 5.04897C29.7436 4.72521 30.0893 4.46945 30.528 4.28167C30.9667 4.09389 31.4649 4 32.0226 4C32.6844 4 33.2755 4.12626 33.796 4.37879C34.324 4.63132 34.7143 5.0004 34.9672 5.48604L33.2495 6.23391C33.1454 6.07204 32.9855 5.93606 32.7699 5.82598C32.5617 5.70943 32.2829 5.65115 31.9334 5.65115C31.7698 5.65115 31.6322 5.66734 31.5207 5.69972C31.4092 5.72562 31.3237 5.77094 31.2642 5.83569C31.2047 5.89397 31.1749 5.96843 31.1749 6.05909C31.1749 6.18211 31.227 6.28248 31.3311 6.36018C31.4352 6.4314 31.5765 6.48968 31.7549 6.53501C31.9408 6.57386 32.1565 6.60947 32.4018 6.64185C32.6844 6.6807 32.9781 6.73897 33.283 6.81667C33.5953 6.8879 33.8853 7.00121 34.153 7.15662C34.4281 7.30554 34.6511 7.50627 34.8222 7.7588C34.9932 8.01133 35.0787 8.33509 35.0787 8.73007C35.0787 9.13153 34.9411 9.49413 34.666 9.81789C34.3983 10.1352 34.034 10.3877 33.573 10.5755C33.1194 10.7633 32.6138 10.8571 32.0561 10.8571Z" fill="white"/>
<path d="M36.9817 9.63335L35.6433 4.14569H37.7067L38.6807 8.63409L39.5247 5.36949C39.6511 4.89033 39.8444 4.54391 40.1047 4.33023C40.3649 4.11008 40.6958 4 41.0974 4C41.4989 4 41.8298 4.11008 42.09 4.33023C42.3577 4.54391 42.551 4.89033 42.67 5.36949L43.514 8.63409L44.488 4.14569H46.5515L45.213 9.63335C45.1164 10.0283 44.9268 10.3327 44.6442 10.5463C44.3616 10.7535 44.0159 10.8571 43.6069 10.8571C43.2426 10.8571 42.9117 10.7568 42.6142 10.5561C42.3168 10.3488 42.1198 10.0672 42.0231 9.71105L41.0974 6.16571L40.1716 9.71105C40.0749 10.0672 39.8779 10.3488 39.5805 10.5561C39.2905 10.7568 38.9596 10.8571 38.5878 10.8571C38.1788 10.8571 37.8331 10.7535 37.5505 10.5463C37.268 10.3327 37.0784 10.0283 36.9817 9.63335Z" fill="white"/>
<path d="M49.6471 4.14569H47.5837V10.7017H49.6471V4.14569Z" fill="white"/>
<path d="M54.033 10.8571C53.3191 10.8571 52.6946 10.7309 52.1592 10.4783C51.6312 10.2258 51.2371 9.85674 50.9769 9.3711L52.6946 8.62323C52.7986 8.82396 52.9585 8.97289 53.1742 9.07001C53.3972 9.16066 53.6835 9.20599 54.033 9.20599C54.2189 9.20599 54.3825 9.1898 54.5237 9.15743C54.665 9.12505 54.7766 9.07649 54.8583 9.01174C54.9476 8.94051 54.9922 8.8531 54.9922 8.74949C54.9922 8.61999 54.9439 8.52287 54.8472 8.45811C54.758 8.39336 54.6278 8.3448 54.4568 8.31242C54.2932 8.27357 54.0962 8.2412 53.8657 8.2153C53.5831 8.17645 53.282 8.12141 52.9622 8.05018C52.6425 7.97248 52.3376 7.85917 52.0476 7.71024C51.7651 7.55484 51.5346 7.35087 51.3561 7.09834C51.1777 6.83934 51.0884 6.51558 51.0884 6.12707C51.0884 5.72562 51.2148 5.36625 51.4677 5.04897C51.7205 4.72521 52.0662 4.46945 52.5049 4.28167C52.9436 4.09389 53.4418 4 53.9995 4C54.6613 4 55.2524 4.12626 55.7729 4.37879C56.3009 4.63132 56.6912 5.0004 56.9441 5.48604L55.2264 6.23391C55.1223 6.07204 54.9624 5.93606 54.7468 5.82598C54.5386 5.70943 54.2598 5.65115 53.9103 5.65115C53.7467 5.65115 53.6091 5.66734 53.4976 5.69972C53.3861 5.72562 53.3006 5.77094 53.2411 5.83569C53.1816 5.89397 53.1518 5.96843 53.1518 6.05909C53.1518 6.18211 53.2039 6.28248 53.308 6.36018C53.4121 6.4314 53.5534 6.48968 53.7318 6.53501C53.9177 6.57386 54.1334 6.60947 54.3787 6.64185C54.6613 6.6807 54.955 6.73897 55.2599 6.81667C55.5722 6.8879 55.8622 7.00121 56.1299 7.15662C56.405 7.30554 56.628 7.50627 56.7991 7.7588C56.9701 8.01133 57.0556 8.33509 57.0556 8.73007C57.0556 9.13153 56.918 9.49413 56.6429 9.81789C56.3752 10.1352 56.0109 10.3877 55.5499 10.5755C55.0963 10.7633 54.5907 10.8571 54.033 10.8571Z" fill="white"/>
<path d="M59.1036 10.4783C59.639 10.7309 60.2636 10.8571 60.9774 10.8571C61.5351 10.8571 62.0407 10.7633 62.4943 10.5755C62.9553 10.3877 63.3196 10.1352 63.5873 9.81789C63.8624 9.49413 64 9.13153 64 8.73007C64 8.33509 63.9145 8.01133 63.7435 7.7588C63.5725 7.50627 63.3494 7.30554 63.0743 7.15662C62.8066 7.00121 62.5166 6.8879 62.2043 6.81667C61.8994 6.73897 61.6057 6.6807 61.3231 6.64185C61.0778 6.60947 60.8621 6.57386 60.6762 6.53501C60.4978 6.48968 60.3565 6.4314 60.2524 6.36018C60.1483 6.28248 60.0963 6.18211 60.0963 6.05909C60.0963 5.96843 60.126 5.89397 60.1855 5.83569C60.245 5.77094 60.3305 5.72562 60.442 5.69972C60.5535 5.66734 60.6911 5.65115 60.8547 5.65115C61.2042 5.65115 61.483 5.70943 61.6912 5.82598C61.9068 5.93606 62.0667 6.07204 62.1708 6.23391L63.8885 5.48604C63.6357 5.0004 63.2453 4.63132 62.7173 4.37879C62.1968 4.12626 61.6057 4 60.9439 4C60.3862 4 59.8881 4.09389 59.4493 4.28167C59.0106 4.46945 58.6649 4.72521 58.4121 5.04897C58.1592 5.36625 58.0328 5.72562 58.0328 6.12707C58.0328 6.51558 58.1221 6.83934 58.3005 7.09834C58.479 7.35087 58.7095 7.55484 58.992 7.71024C59.282 7.85917 59.5869 7.97248 59.9066 8.05018C60.2264 8.12141 60.5275 8.17645 60.8101 8.2153C61.0406 8.2412 61.2376 8.27357 61.4012 8.31242C61.5722 8.3448 61.7024 8.39336 61.7916 8.45811C61.8883 8.52287 61.9366 8.61999 61.9366 8.74949C61.9366 8.8531 61.892 8.94051 61.8027 9.01174C61.721 9.07649 61.6094 9.12505 61.4681 9.15743C61.3269 9.1898 61.1633 9.20599 60.9774 9.20599C60.6279 9.20599 60.3416 9.16066 60.1186 9.07001C59.9029 8.97289 59.7431 8.82396 59.639 8.62323L57.9213 9.3711C58.1816 9.85674 58.5756 10.2258 59.1036 10.4783Z" fill="white"/>
<path d="M29 19.9703H31.0161L31.7094 15.2477L32.8499 19.1589C32.9285 19.4426 33.0894 19.6537 33.3325 19.7922C33.5755 19.9307 33.8436 20 34.1368 20C34.437 20 34.7015 19.9274 34.9303 19.7823C35.1662 19.6372 35.3307 19.4162 35.4236 19.1194L36.5703 15.2584L37.1502 19.9703H39.1555L38.2976 14.3896C38.2333 13.9806 38.0617 13.6706 37.7829 13.4595C37.5112 13.2484 37.1645 13.1429 36.7427 13.1429C36.3566 13.1429 36.0134 13.2286 35.7132 13.4001C35.4129 13.5716 35.2127 13.8421 35.1126 14.2115L34.1367 17.7291L33.1502 14.1818C33.0501 13.8124 32.8535 13.5485 32.5603 13.3902C32.2744 13.2253 31.9419 13.1429 31.563 13.1429C31.1269 13.1429 30.7659 13.2484 30.4799 13.4595C30.2011 13.664 30.0259 13.9641 29.9544 14.3599L29 19.9703Z" fill="white"/>
<path fill-rule="evenodd" clip-rule="evenodd" d="M42.9471 18.8423L42.607 19.9703H40.5802L42.4461 14.35C42.5819 13.941 42.8179 13.6376 43.1539 13.4397C43.4899 13.2418 43.8438 13.1429 44.2156 13.1429C44.5945 13.1429 44.9484 13.2418 45.2772 13.4397C45.6132 13.6376 45.8492 13.941 45.985 14.35L47.851 19.9703H45.8241L45.4888 18.8423H42.9471ZM45.0034 17.2096L44.3121 14.8844C44.2906 14.8184 44.262 14.7854 44.2263 14.7854C44.1905 14.7854 44.1619 14.8184 44.1405 14.8844L43.4394 17.2096H45.0034Z" fill="white"/>
<path fill-rule="evenodd" clip-rule="evenodd" d="M56.5106 16.6555C56.5106 17.1635 56.4141 17.6219 56.2211 18.0309C56.028 18.4333 55.7564 18.7796 55.406 19.0699C55.0557 19.3601 54.6375 19.5844 54.1513 19.7427C53.6723 19.8945 53.1433 19.9703 52.5642 19.9703H49.7009V13.2913H52.5642C53.3578 13.2913 54.0477 13.4331 54.6339 13.7168C55.2273 13.9938 55.6884 14.383 56.0173 14.8844C56.3462 15.3857 56.5106 15.9761 56.5106 16.6555ZM54.4731 16.6555C54.4731 16.3191 54.3944 16.0256 54.2371 15.7749C54.0799 15.5242 53.8582 15.3296 53.5723 15.1911C53.2863 15.046 52.9503 14.9734 52.5642 14.9734H51.6848V18.3377H52.5642C52.8573 18.3377 53.1183 18.2981 53.347 18.2189C53.583 18.1398 53.7832 18.0276 53.9476 17.8825C54.1192 17.7308 54.2479 17.5527 54.3337 17.3482C54.4266 17.1371 54.4731 16.9062 54.4731 16.6555Z" fill="white"/>
<path d="M60.2359 19.9703H64V18.3377H60.504V17.4471H63.6997V15.8145H60.504V14.9239H63.9464V13.2913H60.2359C59.6282 13.2913 59.1885 13.4298 58.9169 13.7069C58.6523 13.9839 58.5201 14.3566 58.5201 14.825V18.4366C58.5201 18.905 58.6523 19.2777 58.9169 19.5547C59.1885 19.8318 59.6282 19.9703 60.2359 19.9703Z" fill="white"/>
<circle cx="12" cy="12" r="12" fill="#DC0028"/>
<path d="M10.2 6H13.8V10.2H18V13.8H13.8V18H10.2V13.8H6V10.2H10.2V6Z" fill="white"/>
</svg>
